<svg xmlns="http://www.w3.org/2000/svg" viewBox="0 0 64 64" role="img" aria-label="Cryptavernix Maplequor favicon">
  <rect width="64" height="64" rx="14" fill="#132026"/>
  <circle cx="32" cy="32" r="24" fill="#d51f37"/>
  <path d="M32 10l4.1 9.2 9.9-2.1-4.9 8.8 8.5 5.4-9.9 1.8 1.3 10-9-4.6-9 4.6 1.3-10-9.9-1.8 8.5-5.4-4.9-8.8 9.9 2.1L32 10z" fill="#ffffff" opacity=".2"/>
  <path d="M22.2 36.7c-1.4-1.3-2.1-3-2.1-5.1 0-2.2.7-3.9 2.1-5.2 1.4-1.3 3.2-2 5.4-2 2.5 0 4.6.9 6.1 2.8l-3.2 3c-.8-1-1.8-1.5-2.9-1.5-.9 0-1.7.3-2.2.8-.6.6-.8 1.2-.8 2.1 0 .8.3 1.5.8 2 .6.6 1.3.8 2.2.8 1.1 0 2.1-.5 2.9-1.5l3.2 3c-1.5 1.9-3.6 2.8-6.1 2.8-2.2 0-4-.7-5.4-2z" fill="#ffffff"/>
  <path d="M36.1 24.7h4.3l4.2 6.7 4.1-6.7H53v13.6h-4.4v-6.7l-3.1 4.8h-1.9l-3.1-4.8v6.7h-4.4V24.7z" fill="#ffffff"/>
</svg>
